# xmcd
#
# Track frame offsets: 
#        150
#        26219
#        50267
#        76304
#        98078
#        120330
#        146428
#
# Disc length: 2228 seconds
#
# Revision: 1
# Processed by: cddbd v1.5.2PL0 Copyright (c) Steve Scherf et al.
# Submitted via: ExactAudioCopyFreeDBPlugin 1.0
#
DISCID=4f08b207
DTITLE=Central Line - Central Line [Japanese CD Edition]
DYEAR=1981
DGENRE=Funk
TTITLE0=Walking Into Sunshine
TTITLE1=I Need Your Love
TTITLE2=Breaking Point
TTITLE3=Shake It Up
TTITLE4=That's No Way To Treat My Love
TTITLE5=Don't Tell Me
TTITLE6=Goodbye
EXTD=
EXTT0=
EXTT1=
EXTT2=
EXTT3=
EXTT4=
EXTT5=
EXTT6=
PLAYORDER=
